HIERARCHY
ROOT Hips
{
	OFFSET 0.00000 0.00000 0.00000
	CHANNELS 6 Xposition Yposition Zposition Zrotation Yrotation Xrotation 
	JOINT LHipJoint
	{
		OFFSET 0 0 0
		CHANNELS 3 Zrotation Yrotation Xrotation
		JOINT LeftHip
		{
			OFFSET 1.53139 -1.83434 0.76626
			CHANNELS 3 Zrotation Yrotation Xrotation
			JOINT LeftKnee
			{
				OFFSET 2.56112 -7.03663 0.00000
				CHANNELS 3 Zrotation Yrotation Xrotation
				JOINT LeftAnkle
				{
					OFFSET 2.59983 -7.14299 0.00000
					CHANNELS 3 Zrotation Yrotation Xrotation
					JOINT LeftToe
					{
						OFFSET 0.13742 -0.37757 2.00054
						CHANNELS 3 Zrotation Yrotation Xrotation
						End Site
						{
							OFFSET 0.00000 -0.00000 1.02897
						}
					}
				}
			}
		}
	}
	JOINT RHipJoint
	{
		OFFSET 0 0 0
		CHANNELS 3 Zrotation Yrotation Xrotation
		JOINT RightHip
		{
			OFFSET -1.40122 -1.83435 0.76627
			CHANNELS 3 Zrotation Yrotation Xrotation
			JOINT RightKnee
			{
				OFFSET -2.54052 -6.98003 0.00000
				CHANNELS 3 Zrotation Yrotation Xrotation
				JOINT RightAnkle
				{
					OFFSET -2.63179 -7.23079 0.00000
					CHANNELS 3 Zrotation Yrotation Xrotation
					JOINT RightToe
					{
						OFFSET -0.24131 -0.66299 2.03908
						CHANNELS 3 Zrotation Yrotation Xrotation
						End Site
						{
							OFFSET -0.00000 -0.00000 1.07391
						}
					}
				}
			}
		}
	}
	JOINT lowerback
	{
		OFFSET 0 0 0
		CHANNELS 3 Zrotation Yrotation Xrotation
		JOINT Chest
		{
			OFFSET 0.01174 2.10302 -0.29778
			CHANNELS 3 Zrotation Yrotation Xrotation
			JOINT Chest2
			{
				OFFSET 0.00772 2.13227 -0.01247
				CHANNELS 3 Zrotation Yrotation Xrotation
				JOINT lowerneck
				{
					OFFSET 0 0 0
					CHANNELS 3 Zrotation Yrotation Xrotation
					JOINT Neck
					{
						OFFSET -0.09219 1.60848 0.31481
						CHANNELS 3 Zrotation Yrotation Xrotation
						JOINT Head
						{
							OFFSET 0.13974 1.65456 -0.31134
							CHANNELS 3 Zrotation Yrotation Xrotation
							End Site
							{
								OFFSET 0.04742 1.69515 -0.14578
							}
						}
					}
				}
				JOINT LeftCollar
				{
					OFFSET 0 0 0
					CHANNELS 3 Zrotation Yrotation Xrotation
					JOINT LeftShoulder
					{
						OFFSET 3.24909 1.02882 -0.23993
CHANNELS 3 Zrotation Xrotation Yrotation
						JOINT LeftElbow
						{
OFFSET 0 -5.329550 -0.000000
CHANNELS 3 Zrotation Xrotation Yrotation
							JOINT LeftWrist
							{
OFFSET 0 -3.692320 -0.000000
CHANNELS 3 Zrotation Xrotation Yrotation
								JOINT lhand
								{
									OFFSET 0 0 0
CHANNELS 3 Zrotation Xrotation Yrotation
									JOINT LFingers
									{
OFFSET 0 -0.536600 -0.000000
CHANNELS 3 Zrotation Xrotation Yrotation
										End Site
										{
OFFSET 0 -0.432620 -0.000000
										}
									}
								}
								JOINT LThumb
								{
OFFSET 0 0.000000 0.000000
CHANNELS 3 Zrotation Xrotation Yrotation
									End Site
									{
OFFSET 0 -0.439220 0.439220
									}
								}
							}
						}
					}
				}
				JOINT RightCollar
				{
					OFFSET 0 0 0
					CHANNELS 3 Zrotation Yrotation Xrotation
					JOINT RightShoulder
					{
						OFFSET -3.21387 0.93002 -0.34594
CHANNELS 3 Zrotation Xrotation Yrotation
						JOINT RightElbow
						{
OFFSET 0 -5.234310 0.000000
CHANNELS 3 Zrotation Xrotation Yrotation
							JOINT RightWrist
							{
OFFSET 0 -3.553010 -0.000000
CHANNELS 3 Zrotation Xrotation Yrotation
								JOINT rhand
								{
									OFFSET 0 0 0
CHANNELS 3 Zrotation Xrotation Yrotation
									JOINT RFingers
									{
OFFSET 0 -0.772520 -0.000000
CHANNELS 3 Zrotation Xrotation Yrotation
										End Site
										{
OFFSET 0 -0.622830 -0.000000
										}
									}
								}
								JOINT RThumb
								{
OFFSET 0 0.000000 0.000000
CHANNELS 3 Zrotation Xrotation Yrotation
									End Site
									{
OFFSET 0 -0.632340 0.632340
									}
								}
							}
						}
					}
				}
			}
		}
	}
}
MOTION
Frames: 11
Frame Time: 0.008333333333333333
-11.020466 17.978727 6.363096 0.976373 72.384705 2.636529 0.000000 0.000000 0.000000 -10.867532 -3.240871 -15.777468 1.112075 6.699492 18.828273 -0.768575 18.801529 -18.721689 0.023459 0.989184 2.718897 0.000000 0.000000 0.000000 18.450470 -15.567931 -10.732822 -1.797765 -8.431451 24.032450 0.680226 -20.231820 -22.658338 -0.073328 -1.744764 4.800882 4.829477 3.003908 13.492176 -0.036998 4.770040 -0.113827 -3.677256 2.152888 -7.291796 -8.130193 2.482817 -22.704775 0.847507 7.921740 35.716382 3.451095 2.564951 16.315836 0.000000 0.000000 0.000000 9.840021 1.486888 -63.263283 70.445286 -58.504633 43.150166 24.147156 -8.156777 -25.999878 0.000000 0.000000 0.000000 -7.125000 0.000000 0.000000 -6.437739 57.988357 2.052195 0.000000 0.000000 0.000000 -12.808626 -0.706269 65.170246 -72.163084 -58.763076 -44.617000 -22.086712 11.483578 -14.054549 0.000000 0.000000 0.000000 7.125000 0.000000 0.000000 3.652696 14.882738 2.597515
-10.894543 17.945588 6.290447 -1.049932 73.202119 0.505853 0.000000 0.000000 0.000000 -10.644982 -2.011298 -15.611393 1.042321 6.492662 18.220717 -1.459773 21.870380 -15.296179 0.401155 -3.058971 -8.501945 0.000000 0.000000 0.000000 18.692654 -15.305703 -9.861457 -1.802171 -8.441197 24.062370 0.808388 -21.278322 -23.311435 -0.083126 -1.859417 5.117280 4.838555 3.321407 13.266542 0.296602 5.205513 -0.043116 -3.385789 2.381045 -7.080182 -8.495443 2.098431 -22.656779 1.092085 7.388255 35.615478 3.511479 2.341863 16.257753 0.000000 0.000000 0.000000 9.785927 1.349517 -63.395394 70.364250 -58.491834 43.081065 23.898161 -8.020705 -25.676027 0.000000 0.000000 0.000000 -7.125000 0.000000 0.000000 -6.569511 57.596063 2.031756 0.000000 0.000000 0.000000 -12.908099 -0.722089 65.016581 -72.275237 -58.778951 -44.712835 -21.484185 11.705405 -14.065111 0.000000 0.000000 0.000000 7.125000 0.000000 0.000000 4.064677 14.937047 2.887042
-10.783473 17.928054 6.227452 -1.907233 73.780216 -0.285954 0.000000 0.000000 0.000000 -10.426925 -1.581495 -15.038468 1.000621 6.365522 17.848774 -0.630421 19.418459 -21.647749 0.688485 5.045031 14.090592 0.000000 0.000000 0.000000 18.611179 -14.921328 -9.229450 -1.806306 -8.450343 24.090467 1.010642 -22.289587 -23.233696 -0.032630 -1.136378 3.124367 4.196992 3.767570 13.070177 0.521469 5.708103 -0.126264 -2.869569 2.650771 -7.100593 -8.390308 1.876807 -22.397694 0.784272 7.080120 35.305664 3.281829 2.206971 16.089414 0.000000 0.000000 0.000000 9.805888 1.390026 -63.294957 70.440198 -58.503825 43.145819 22.902362 -8.593697 -25.051484 0.000000 0.000000 0.000000 -7.125000 0.000000 0.000000 -7.378889 56.731113 2.128977 0.000000 0.000000 0.000000 -12.951698 -0.737207 65.117943 -72.513594 -58.812493 -44.916670 -21.287168 11.116439 -14.090706 0.000000 0.000000 0.000000 7.125000 0.000000 0.000000 4.200338 14.930967 2.984525
-10.661178 17.917998 6.159229 -1.851973 74.336295 -0.136475 0.000000 0.000000 0.000000 -11.126758 1.306632 -15.806577 0.981265 6.305495 17.673412 -0.598175 18.695973 -20.652384 0.791243 5.661116 15.808784 0.000000 0.000000 0.000000 18.228975 -14.494628 -8.578494 -1.802737 -8.442475 24.066312 1.197332 -23.222420 -23.241075 -0.007794 -0.554842 1.524719 3.397859 4.202625 12.736915 0.566871 6.154645 -0.198723 -2.433424 2.898564 -7.045879 -7.965112 1.725180 -22.292519 0.330539 6.817948 35.021136 2.952525 2.104230 15.985342 0.000000 0.000000 0.000000 9.959813 1.394487 -63.068009 70.583406 -58.526429 43.267936 22.578574 -8.466577 -24.997057 0.000000 0.000000 0.000000 -7.125000 0.000000 0.000000 -7.702267 56.605401 2.200053 0.000000 0.000000 0.000000 -12.842629 -0.836054 65.268142 -72.608544 -58.825694 -44.997907 -21.396191 11.142330 -13.928105 0.000000 0.000000 0.000000 7.125000 0.000000 0.000000 4.118484 15.091785 2.911795
-10.514162 17.922312 6.061019 -0.454844 75.181221 1.369815 0.000000 0.000000 0.000000 -12.310535 3.444328 -16.591378 0.973789 6.282314 17.605695 -0.772414 18.442872 -17.833805 0.515171 4.593512 12.753975 0.000000 0.000000 0.000000 17.259366 -14.153515 -7.760760 -1.778345 -8.388298 23.899851 1.266081 -23.673442 -23.507198 -0.009789 -0.557329 1.531753 2.648231 4.499058 12.130131 0.476849 6.408971 -0.205909 -2.103930 3.056072 -6.767739 -7.939184 1.508700 -22.266862 0.314318 6.472832 34.865961 2.870214 1.971183 15.924855 0.000000 0.000000 0.000000 9.889905 1.353852 -62.652464 70.521679 -58.516724 43.215329 22.302170 -8.577576 -24.615955 0.000000 0.000000 0.000000 -7.125000 0.000000 0.000000 -7.835090 56.153684 2.152787 0.000000 0.000000 0.000000 -12.712477 -1.028175 65.211221 -72.595732 -58.823894 -44.986969 -20.974193 11.766495 -14.261056 0.000000 0.000000 0.000000 7.125000 0.000000 0.000000 4.421514 14.783974 3.156707
-10.367498 17.927301 5.956568 1.047712 76.276049 2.874319 0.000000 0.000000 0.000000 -13.504138 4.910242 -17.159156 0.964498 6.252945 17.520025 -0.899147 17.953680 -14.317295 0.225934 3.052224 8.424838 0.000000 0.000000 0.000000 16.227024 -13.503499 -6.504398 -1.745788 -8.315155 23.675506 1.234113 -23.866179 -24.261901 -0.067138 -1.671075 4.597461 1.965292 4.702224 11.725839 0.427091 6.567466 -0.180437 -1.768226 3.161573 -6.576005 -8.289933 1.235317 -22.257827 0.520508 6.116667 34.732013 2.945473 1.815726 15.855938 0.000000 0.000000 0.000000 10.156730 1.326592 -62.424995 70.911791 -58.577462 43.548080 22.268477 -8.685724 -24.306521 0.000000 0.000000 0.000000 -7.125000 0.000000 0.000000 -7.742344 55.827528 2.065156 0.000000 0.000000 0.000000 -12.669930 -1.254650 65.109385 -72.576505 -58.821272 -44.970563 -20.314742 12.315388 -14.368339 0.000000 0.000000 0.000000 7.125000 0.000000 0.000000 4.875448 14.740377 3.487355
-10.227105 17.940510 5.821920 3.086583 77.207949 5.373026 0.000000 0.000000 0.000000 -14.779114 5.738259 -18.095613 0.950630 6.209240 17.392739 -0.844699 16.718249 -11.404636 0.065283 1.634869 4.497933 0.000000 0.000000 0.000000 15.115673 -12.898227 -6.049546 -1.726658 -8.271769 23.542689 1.362424 -24.204545 -23.688002 -0.044899 -1.366640 3.758308 1.564503 4.945275 11.143089 0.161243 6.807533 -0.354984 -1.817398 3.290294 -6.438472 -8.298757 1.003926 -22.223278 0.488165 5.783332 34.638227 2.867342 1.678801 15.824802 0.000000 0.000000 0.000000 10.315187 1.299015 -62.099068 70.914041 -58.577822 43.550045 21.061441 -8.676667 -23.729382 0.000000 0.000000 0.000000 -7.125000 0.000000 0.000000 -8.768244 54.988527 2.162773 0.000000 0.000000 0.000000 -12.541469 -1.408894 65.284151 -72.689451 -58.836915 -45.067143 -20.693493 11.867387 -14.493352 0.000000 0.000000 0.000000 7.125000 0.000000 0.000000 4.623054 14.568609 3.322538
-10.067567 17.951533 5.679979 5.035351 78.560113 7.603701 0.000000 0.000000 0.000000 -15.723785 5.423998 -18.386408 0.961512 6.243449 17.492406 -0.649746 14.467152 -8.916434 0.013176 0.706824 1.942419 0.000000 0.000000 0.000000 14.040629 -13.090483 -5.612818 -1.719077 -8.254667 23.490215 1.467098 -24.396774 -23.000024 -0.015654 -0.782807 2.151479 1.425033 4.963046 10.478695 0.008416 6.791919 -0.383236 -1.832404 3.293640 -6.092280 -8.739448 0.776375 -22.179153 0.701490 5.517884 34.428858 2.974014 1.553307 15.707574 0.000000 0.000000 0.000000 10.412278 1.295067 -61.968252 71.430142 -58.655949 43.990575 25.883135 -6.569771 -23.534240 0.000000 0.000000 0.000000 -7.125000 0.000000 0.000000 -3.598718 55.778199 0.940266 0.000000 0.000000 0.000000 -12.224108 -1.539640 65.256092 -72.504456 -58.811187 -44.908855 -20.952467 11.790189 -14.634066 0.000000 0.000000 0.000000 7.125000 0.000000 0.000000 4.453344 14.392106 3.216614
-9.930002 17.966705 5.536223 4.281937 79.453774 6.972790 0.000000 0.000000 0.000000 -16.108135 5.926113 -18.845884 1.000345 6.364631 17.846125 -0.424024 11.848241 -7.672995 0.202068 2.880607 7.947431 0.000000 0.000000 0.000000 13.569170 -13.179286 -5.243958 -1.744963 -8.313140 23.669341 1.640331 -24.784034 -21.955395 -0.006319 -0.511445 1.405443 1.735147 5.206603 10.351876 -0.056690 7.148501 -0.428590 -2.110145 3.460041 -6.010374 -8.982949 0.503301 -22.116202 0.805966 5.161654 34.317895 2.988483 1.397262 15.653137 0.000000 0.000000 0.000000 10.561241 1.111682 -61.999601 71.297106 -58.636009 43.877044 27.892660 -6.225588 -22.495343 0.000000 0.000000 0.000000 -7.125000 0.000000 0.000000 -1.128204 55.087134 0.261787 0.000000 0.000000 0.000000 -11.882674 -1.581534 65.030905 -72.526550 -58.814284 -44.927762 -21.019539 11.725798 -14.549615 0.000000 0.000000 0.000000 7.125000 0.000000 0.000000 4.403870 14.474083 3.172987
-9.764682 17.970342 5.344490 5.303170 80.635416 7.984744 0.000000 0.000000 0.000000 -16.961285 5.417760 -18.659505 1.029768 6.454828 18.109947 -0.407939 11.503342 -6.894555 0.139260 2.395734 6.601082 0.000000 0.000000 0.000000 12.484580 -14.337713 -5.390750 -1.845210 -8.535516 24.353189 1.766177 -24.764160 -20.217027 -0.011217 -0.680945 1.871305 2.359274 5.321502 10.130838 -0.246192 7.360917 -0.460805 -2.652791 3.548283 -5.808923 -9.093913 0.208077 -21.752317 0.595037 4.817232 34.181822 2.842801 1.227417 15.538572 0.000000 0.000000 0.000000 10.591977 1.101000 -61.917493 70.633740 -58.534307 43.310875 21.293137 -8.957951 -22.246677 0.000000 0.000000 0.000000 -7.125000 0.000000 0.000000 -7.957479 53.507753 1.671748 0.000000 0.000000 0.000000 -12.050514 -1.322153 65.090684 -73.273135 -58.915719 -45.566909 -21.130158 11.486304 -13.862603 0.000000 0.000000 0.000000 7.125000 0.000000 0.000000 4.297603 15.189544 3.030489
-9.600952 17.979655 5.183163 7.881793 81.335056 10.191133 0.000000 0.000000 0.000000 -18.070226 6.128834 -18.160943 1.029107 6.452850 18.104241 -0.383375 11.091677 -6.311546 0.207093 2.913225 8.038543 0.000000 0.000000 0.000000 11.189141 -15.020380 -5.328296 -2.025342 -8.917689 25.538922 1.942625 -25.094910 -18.558376 -0.022117 -0.944623 2.596643 2.183305 5.617263 10.224299 -0.269891 7.733749 -0.411468 -2.639529 3.737104 -5.808299 -9.623488 -0.117330 -21.320812 0.587220 4.540916 34.221028 2.873674 1.059810 15.474331 0.000000 0.000000 0.000000 10.723840 1.143267 -62.332247 70.803311 -58.560721 43.455502 21.803531 -9.372535 -23.079396 0.000000 0.000000 0.000000 -7.125000 0.000000 0.000000 -7.744459 54.466164 1.808779 0.000000 0.000000 0.000000 -11.905533 -1.051803 64.815763 -73.194759 -58.905315 -45.499801 -21.313336 11.275135 -13.684180 0.000000 0.000000 0.000000 7.125000 0.000000 0.000000 4.164419 15.359358 2.920640
